<?xml version="1.0" encoding="UTF-8"?>
<svg id="Calque_2" data-name="Calque 2" xmlns="http://www.w3.org/2000/svg" viewBox="0 0 246.01 226.2">
  <defs>
    <style>
      .cls-1 {
        fill: #4f4f4f;
      }

      .cls-2 {
        fill: #bebcbc;
        isolation: isolate;
        opacity: .5;
      }
    </style>
  </defs>
  <g id="Calque_1-2" data-name="Calque 1">
    <path id="sakuraGris-3" class="cls-2" d="M56.89,208.18c-3.3,1.78-14.62,5.59-17.56,3.22-1.3-1.05-2.99-6.77-3.49-8.59-6.18-22.57.27-44.24,17.43-60.36-19.44-2.03-36.75-13.18-46.62-30.05-1.88-3.24-7.52-14.71-6.54-17.9.86-2.81,12.67-7.01,15.93-6.84l-7-9.93c-4.4-5.98,1.9-9.04,6.74-11.99,19.8-12.07,43.06-12.88,63.86-2.48-2.62-18.96,1.59-36.37,14.73-50.8C96.85,9.74,107.64,0,110.92,0c3.24-.01,10.77,9.25,11.64,12.48.91.81,1.86-2.24,2.36-2.95C126.63,7.12,132.23,0,135.23,0c3.42,0,14.26,9.93,16.79,12.74,12.98,14.46,17.11,31.64,14.49,50.53,6.02-2.58,12.05-5.06,18.6-6.23,15.65-2.8,31.77.3,45.26,8.71,4.22,2.57,10.91,5.93,7.06,11.3l-7.33,10.62c3.36-.13,14.01,3.66,15.53,6.2,1.44,2.4-1.71,9.54-2.89,12.21-8.9,20.19-27.93,34.07-49.88,36.37,16.99,16.08,23.52,37.49,17.54,59.96-.48,1.79-2.4,8.01-3.6,8.98-2.94,2.38-14.26-1.44-17.56-3.22v11.2c0,.91-1.07,4.52-1.77,5.27-2.66,2.83-15.49,1.04-19.53.32-22.33-4.02-32.97-14.94-44.24-32.58-.2-.31.03-.94-.9-.64-.48.16-4.14,7.17-5.11,8.54-9.45,13.06-23.63,21.92-39.51,24.69-4.03.73-16.89,2.52-19.53-.32-.86-1.48-1.46-3.09-1.77-4.77v-11.7h0Z"/>
    <g>
      <g>
        <path d="M93.28,102.22c-.03.81.92.97,1.39,1.54.8.97,3.06,4.32,2.95,5.45-.14,1.42-1.63,1.9-2.87,1.61-1.38-.31-3.56-5.61-5.82-5.96-2.89,1.83-5.41,4.34-7.14,7.3.67.03,1.41.13,2.02.41.56.26,4.02,2.9,4.5,3.41.88.91,1.26,1.63.49,2.81-2.06,3.17-4.97-1.74-6.68-2.23-.65-.19-2.47-.25-2.84.37-.26.44-1.79,5.5-1.57,5.7,1.59-.01,2.64-1.01,4.07.14.33.27,2.71,3.84,2.88,4.27.81,2.1-1.62,4.03-3.51,2.24-.46-.44-1.57-2.44-1.7-2.52-.24-.14-2.24.23-2.4.45-.1.14-.35,2.04-.38,2.43-.41,5.56.05,11.91,1.01,17.39l18.64,12.25c1.63,1.59.71,3.75-1.64,3.71-3.32-.06-7.78-1.95-11.11-2.57-.35.38,1.55,8.54,1.26,10.33-.19,1.21-1.23,1.82-2.39,1.67s-1.94-1.64-2.55-2.57c-3.59-5.45-5.43-11.54-6.27-17.98-.12-.88.12-1.84-.06-2.75-.52-2.56-4.81-9.65-6.08-13.08-11.29-30.63,4.19-55.89,35.7-61.6,5.8-1.05,14.63-2.61,20.36-2.88,1.82-.09,2.98.24,3.08,2.3-2.64,6.24-4.31,13.24-8.06,18.88,6.49-.58,15.01-2.65,18.27-8.92,5.96-11.47-8.5-16.87-17.04-18.99-1.65-.41-5.8-.8-6.95-1.48-1.72-1.02-.94-3.72,1.24-3.82,3.61-.17,12.94,2.95,16.39,4.57,12.13,5.69,16.39,16.14,6.33,26.6l-3.18,2.3c6.51-1.07,12.22-2.75,13.25-10.11,1.66-11.84-7.3-18.94-16.91-23.38-1.2-.55-4.26-1.35-4.91-2.24-1.03-1.4-.06-3.38,1.61-3.54s8.41,3.32,10.1,4.34c9.19,5.55,15.48,13.52,14.44,24.82-1.38,15.06-20.83,15.33-32.28,14.98-2-.06-4.67-.75-6.61-.5-1,.13-2.32.71-3.42.92-5.3,1.02-10.6,1.86-15.62,3.91ZM121.11,76.43c-5.94.8-12.04,1.23-17.93,2.37-.95.18-5.56,1.22-6.07,1.59-.38.27-.72,2.48-.76,3.07-.22,2.74.33,5.77,1.41,8.29.43,1.01,1.88,3.82,2.98,3.79,4.29-1.39,9.39-.92,12.98-3.91,4.08-3.39,4.93-10.63,7.4-15.19ZM92.26,82.3c-3.95,1.57-7.62,3.81-10.9,6.5,1.01,4.41,3.77,8.83,7.93,10.81l6.55-2.88c-1.3-1.62-2.32-3.82-2.88-5.8-.13-.48-.69-2.6-.69-2.88v-5.75ZM85.11,101.97c-3.6-2.28-5.75-6.17-7.53-9.96-.31,0-3.48,4.14-3.91,4.77-.47.69-2.29,3.44-2.34,4.05-.19,2.71,3.52,8.88,6,10.32,1.49-2.39,3.2-4.79,5.23-6.76.38-.37,2.85-2,2.56-2.42ZM73.62,121.63c.19-2.26,1.15-4.33,1.74-6.48-1.09-1.03-2.28-1.96-3.27-3.1-1.28-1.48-2.11-3.21-3.32-4.72-.09,1.43-.58,2.82-.74,4.24-.06.57-.28,2.5-.18,2.9.27,1.12,2.16,4.02,2.97,4.97.37.44,2.34,2.62,2.8,2.18ZM72.34,136.43c.01.25-.01.51,0,.76h.25c-.04-.47.21-1.23-.25-1.53-.07-3.04.07-6.06.43-9.08-1.45-1.07-2.96-2.02-4.13-3.43-.02,2.47.82,5.23,1.53,7.66.55,1.87,1.24,3.9,2.17,5.62ZM82.81,155.58l-4.6-3.06.51,4.08c.54-.3.74-1.27,1.46-1.48,1.07-.32,1.68.22,2.63.46Z"/>
        <path class="cls-1" d="M72.34,135.67c.46.3.21,1.06.25,1.53h-.25c-.01-.25,0-.51,0-.76s0-.51,0-.77Z"/>
        <path d="M110.32,79.54c3.62-.83,3.34,4.83-.2,3.66-1.45-.48-1.42-3.29.2-3.66Z"/>
      </g>
      <g>
        <path d="M162.54,95.89c-2.32,12.82-5.56,25.46-10.28,37.6l10.53,1.22c2.62,2.16.89,3.3-1.16,4.57-5.15,3.2-10.97,5.81-16.18,8.97-5.59,12.76-19.61,21.39-33.01,23.81-10.44,1.88-10.9-3.5-11.25-12.26-.53-13.36,1.36-22.54,10.47-32.44,1.52-1.65,6.78-5.99,7.52-7.29s1.42-4.45,2.23-6.2c.61-1.34,2.74-5.39,3.68-6.27.6-.57,1.5-.67,2.27-.52,1.64.32,1.53,3.12,1.67,4.46.04.37-.23.75.37.64,9.13-7,18.9-13.13,28.86-18.89.65-6.91,1-13.86,1.42-20.8.6-2.18,3.03-2.75,4.12-.58l4.28,11.04c1.15.02,2.32.32,3.45.38,2.95.16,6.29-.3,9.2.25,1.62.31,2.02,3.08.57,3.88l-18.77,8.43ZM170.91,87.41h-4.21c-1.89,0-2.52-3.23-3.06-4.6-.57-.01-.48,7.42-.89,8.17l8.17-3.57ZM138.48,150.99c.47.1.5-.14.72-.42,1.86-2.39,4.28-7.58,5.62-10.46,6.05-12.97,10.16-27.36,12.55-41.46-9.55,5.61-18.82,11.72-27.59,18.49-.26.3-.26.66-.26,1.04-.03,2.38.92,5.55.81,7.92-.13,2.67-3.21,2.99-4.25.65l-.63-8.06-.51-2.68c-.98,2.85-1.99,5.16-1.76,8.27.09,1.18.98,1.98-.17,3.21-1.26,1.34-3.72.26-3.82-1.52l-5.75,5.75c11.14,1.18,21.37,8.56,25.03,19.28ZM105.79,161.71c.84-1.75,2.72-6.93,5.35-4.45.67.63.62,1.6.4,2.42-.38,1.47-4.5,7.71-4.47,8.29,1.48.88,3.93.11,5.61-.25,5.81-1.27,13.59-4.7,18.52-8.04.82-.56,4.02-2.91,4.33-3.59.63-1.35-2-6.52-2.83-7.89-4.68-7.74-13.36-12.35-22.4-12.28-4.44,7.1-5.21,16.92-4.78,25.16.02.29-.17.7.25.63ZM154.82,137.97l-4.32-.24-1.81,3.81c.27.23,5.54-3,6.13-3.57Z"/>
        <path d="M122.97,156.17c2.09-1.76,4.93,1.42,2.87,3.25-2.26,2.01-4.77-1.64-2.87-3.25Z"/>
      </g>
    </g>
  </g>
</svg>