<?xml version="1.0" encoding="UTF-8"?>
<svg id="Calque_2" data-name="Calque 2" xmlns="http://www.w3.org/2000/svg" viewBox="0 0 246.01 226.2">
  <defs>
    <style>
      .cls-1 {
        fill: #bebcbc;
        isolation: isolate;
        opacity: .5;
      }
    </style>
  </defs>
  <g id="Calque_1-2" data-name="Calque 1">
    <path id="sakuraGris" class="cls-1" d="M56.89,208.18c-3.3,1.78-14.62,5.59-17.56,3.22-1.3-1.05-2.99-6.77-3.49-8.59-6.18-22.57.27-44.24,17.43-60.36-19.44-2.03-36.75-13.18-46.62-30.05-1.88-3.24-7.52-14.71-6.54-17.9.86-2.81,12.67-7.01,15.93-6.84l-7-9.93c-4.4-5.98,1.9-9.04,6.74-11.99,19.8-12.07,43.06-12.88,63.86-2.48-2.62-18.96,1.59-36.37,14.73-50.8C96.85,9.74,107.64,0,110.92,0c3.24-.01,10.77,9.25,11.64,12.48.91.81,1.86-2.24,2.36-2.95C126.63,7.12,132.23,0,135.23,0c3.42,0,14.26,9.93,16.79,12.74,12.98,14.46,17.11,31.64,14.49,50.53,6.02-2.58,12.05-5.06,18.6-6.23,15.65-2.8,31.77.3,45.26,8.71,4.22,2.57,10.91,5.93,7.06,11.3l-7.33,10.62c3.36-.13,14.01,3.66,15.53,6.2,1.44,2.4-1.71,9.54-2.89,12.21-8.9,20.19-27.93,34.07-49.88,36.37,16.99,16.08,23.52,37.49,17.54,59.96-.48,1.79-2.4,8.01-3.6,8.98-2.94,2.38-14.26-1.44-17.56-3.22v11.2c0,.91-1.07,4.52-1.77,5.27-2.66,2.83-15.49,1.04-19.53.32-22.33-4.02-32.97-14.94-44.24-32.58-.2-.31.03-.94-.9-.64-.48.16-4.14,7.17-5.11,8.54-9.45,13.06-23.63,21.92-39.51,24.69-4.03.73-16.89,2.52-19.53-.32-.86-1.48-1.46-3.09-1.77-4.77v-11.7h0Z"/>
    <g>
      <path d="M115.48,48.72c1.1.72,1.58,1.71,1.14,3.03-.5,1.53-4.46,5.05-5.53,6.79-2.48,4.02.82,5.01,1.75,8.28s.05,6.49-2.26,8.81c-1.23,1.23-2.95,1.62-3.87-.16-1.16-2.25,1.37-2.95,1.86-4.86.76-2.94-1-3.65-1.99-5.82-1.26-2.76-1.02-5.63.5-8.25l6.64-7.82h1.76Z"/>
      <path d="M141.13,48.72c1.71,1.24,1.96,2.13.75,3.9-1.98,2.91-7.09,6.18-5.59,10.12,1.32,3.45,3.25,3.39,2.46,8.38-.34,2.17-3.22,7.11-5.8,5.02-2.19-1.77.41-3.45,1.11-4.94,1.55-3.31-1.08-4.38-1.99-7-2.36-6.78,3.72-10.75,7.3-15.47h1.76Z"/>
      <path d="M128.31,48.72c1.91,1.36,1.77,2.39.5,4.14-1.52,2.09-5.64,5.53-5.76,8.09-.09,1.94,1.04,2.57,1.79,3.94,1.06,1.94,1.45,3.75,1.1,5.97s-3.24,7.6-5.93,5.15c-2.23-2.03.94-3.6,1.4-5.15,1.01-3.41-1.53-4.35-2.33-7-2.01-6.61,3.93-10.57,7.47-15.14h1.76Z"/>
      <path d="M116.49,151.57c-8.7-.31-17.29-2.19-25.39-5.28-.59,1.55-1.37,3.06-2.14,4.53-2.28,4.35-5.83,12.55-8.55,16.09-4.76,6.2-14.4.8-10.99-6.97,2.67-6.08,6.71-12.4,9.73-18.43.26-.51.6-1.01.65-1.6-9.43-6.76-16.32-18.07-18.31-29.52-1.2-6.9-1.98-12.31,3.7-17.29,13.38-11.7,48.55-13.59,65.77-12.96,13.3.49,43.18,4.13,51.91,14.98,2.88,3.57,2.68,6.96,2.27,11.31-1.26,13.15-8.28,25.68-18.88,33.48,3.23,7.23,7.37,14.01,10.76,21.16,1.74,5.54-3.84,10.51-9.15,7.9-1.67-.82-2.5-2.36-3.39-3.9-2.9-5.02-5.34-10.64-8.12-15.76-.22-.41-1.59-2.97-1.76-2.98-7.91,3.23-16.47,4.9-25.03,5.25v20.49c0,2.63-3.62,5.3-6.15,5.42-2.84.13-6.93-2.41-6.93-5.42v-20.49ZM119.45,84.5c-14.28.31-35.11,2.38-47.64,9.44-13.52,7.61-3.54,14.2,5.89,17.83,23.6,9.09,67.04,9.04,90.65,0,6.3-2.41,18.05-8.1,9.36-15.52-11.58-9.89-43.42-12.07-58.26-11.75ZM116.49,147.04v-4.9c0-.29.6-1.6.79-1.98,2.22-4.47,8.64-4.74,11.23-.49.26.43,1.05,2.09,1.05,2.47v4.9c22.68-.38,45.72-12.4,50.29-36.21-8.13,5.5-18.01,8.06-27.61,9.73-17.2,3-36.17,3.18-53.45.8-11.19-1.54-23.12-4.23-32.6-10.53,4.58,23.95,27.55,35.71,50.29,36.21ZM124.46,172.61c.4-.34.54-1.03.59-1.54.84-8.91-.66-19.13-.01-28.18-.26-2.45-3.79-2.42-4.03,0v28.43c.09,1.68,2.27,2.29,3.45,1.3ZM87.05,144.29l-3.38-1.75c-3.63,6.71-7.38,13.51-10.56,20.46.11,2.05,2.14,2.79,3.66,1.45,2.97-5.85,6.19-11.58,9.17-17.41.24-.47,1.35-2.42,1.11-2.75ZM172.49,164.57c.49-.61.43-1.92.13-2.62l-10.12-19.43-3.5,1.78c-.25.35,1.99,4.52,2.37,5.27,2.52,4.98,5.3,9.84,7.82,14.81.5,1.11,2.65,1,3.3.2Z"/>
      <g>
        <path d="M129.25,87.25c1.99-.2,3.14,2.34,1.83,3.85l-23.51,23.51c-1.82,1.76-4.53.04-3.78-2.28l24.27-24.51c.32-.27.79-.53,1.2-.57Z"/>
        <path d="M139.55,89.5c2.09-.46,3.73,1.88,2.33,3.6l-21.5,21.5c-2.18,1.99-5.06-.52-3.39-2.89l21.62-21.63c.27-.25.57-.49.94-.57Z"/>
        <path d="M116.42,87.25c1.84-.18,3.12,2.19,1.83,3.59l-21.99,22.02c-1.73,1.01-3.88-.7-3.3-2.54l22.26-22.5c.32-.27.79-.53,1.2-.57Z"/>
        <path d="M150.85,91.54c1.89-.09,3.08,2.32,1.73,3.71l-19.49,19.49c-2.36,1.82-4.98-1.06-3.03-3.28l19.1-19.12c.4-.36,1.16-.77,1.68-.8Z"/>
        <path d="M144.98,112.51c-.89-.98-.65-2.37.17-3.31,5.69-4.61,11.16-12.61,16.84-16.86,2.56-1.92,5.13.48,3.53,2.77l-17.92,17.79c-.8.38-2.01.27-2.62-.39Z"/>
        <path d="M100.83,89.52c2.19-.58,3.48,1.4,2.59,3.35l-17.61,17.6c-2.31,1.8-4.68-1.1-3.03-3.28,5.75-4.97,10.93-11.97,16.72-16.73.35-.29.92-.83,1.32-.94Z"/>
        <path d="M74.32,106.23c-1.13-1.05-.78-2.35.04-3.45,1.08-1.45,9.37-9.8,10.71-10.67,2.38-1.55,4.81.8,3.14,3.14-2.6,3.65-8.19,7.36-11.07,11.06-.81.63-2.06.62-2.82-.08Z"/>
        <path d="M169.73,98.05c2.06-.46,3.33,1.65,2.34,3.35l-9.32,9.28c-1.99,1.34-4.18-1.25-2.87-3.12,1.9-1.36,8.23-9.16,9.85-9.52Z"/>
      </g>
    </g>
  </g>
</svg>