<svg xmlns="http://www.w3.org/2000/svg" xmlns:xlink="http://www.w3.org/1999/xlink" width="1920.245" height="740" viewBox="0 0 1920.245 740">
  <defs>
    <clipPath id="clip-path">
      <path id="Tracé_161" data-name="Tracé 161" d="M0,0H1920l.245,738.783L.337,740Z" fill="#813733"/>
    </clipPath>
  </defs>
  <g id="Groupe_de_masques_1" data-name="Groupe de masques 1" clip-path="url(#clip-path)">
    <path id="Vague" d="M1917.775,441.46c-147.863,44.415-209.015-144.645-209.015-144.645C1689.127,235.066,1658.446,196,1658.446,196c-58.109-78.605-122.59-126.75-181.346-156.178-116.166-58.183-255.625-48.89-362.651,25.6-42.166,29.35-70.444,62.568-89.386,94.525-49.158,82.924-46.417,190.014,7.151,269.984,53.172,79.378,131.073,86.143,131.073,86.143,125.957,7.52,125.045-98.7,125.045-98.7.912-102.46-125.616-76.492-125.616-76.492,28.068-76.141,87.623-76.141,87.623-76.141,75.5-10.991,115.157,30.687,135.552,70.422a182.371,182.371,0,0,1,14.452,127.4c-44.868,175.785-314.295,180.065-314.295,180.065-308.869,25.5-503.032-152.345-551.023-202.256-24.381-25.354-50.17-49.344-77.9-70.741C240.372,202.362.119,217.033.119,217.033V734.89H1917.775Z" transform="translate(0.291 5.11)" fill="#813733"/>
  </g>
</svg>
