<?xml version="1.0" encoding="UTF-8"?>
<svg id="Calque_2" data-name="Calque 2" xmlns="http://www.w3.org/2000/svg" viewBox="0 0 384.15 383.94">
  <defs>
    <style>
      .cls-1 {
        fill: #fff;
      }
    </style>
  </defs>
  <g id="Objects">
    <path class="cls-1" d="M206.55,0c92.3,1.99,174.68,85.71,177.4,176.65-.47,9.82.64,20.2,0,29.94-.76,86.8-72.75,159.64-156.05,174.49-22.22,3.96-55.14,3.88-77.21-.72C78.54,365.34,18.21,305.67,3.46,233.36c-4.58-22.45-4.54-56.04-.29-78.58C18.9,71.32,90.94.7,178.1,0h28.44ZM243.23,87.58h-43.04c-17.1,0-37.05,20.87-37.05,37.8v32.94c0,.08-1.04,1.12-1.12,1.12h-21.33v38.92h22.46v110.78h45.66v-110.78h30.32c1.96,0,3.32-35.6,4.87-38.92h-35.18v-27.32c0-2.23,5.54-7.11,7.86-7.11h26.57v-37.43Z"/>
  </g>
</svg>