<?xml version="1.0" encoding="UTF-8"?>
<svg id="Calque_2" data-name="Calque 2" xmlns="http://www.w3.org/2000/svg" viewBox="0 0 384.04 383.84">
  <g id="Objects">
    <path d="M206.43,0c92.4,1.88,174.94,85.87,177.4,176.65-.47,9.82.64,20.2,0,29.94-.8,64.52-44.63,125.26-100.3,155.47-35.05,19.02-66.33,23.11-105.62,21.44-79.92-3.41-149.64-62.07-171.58-138.31C.25,224.08-.42,204.22.17,182.38c.58-21.35,3.02-37.51,10.54-57.62C36.22,56.46,103.58.83,177.99,0h28.44ZM110.44,91.52c-24.82,3.6-25.75,43.16.89,47.38,36.11,5.71,38.49-53.09-.89-47.38ZM292.51,291.93v-87.95c-2.31-34.57-20.42-52.17-55.75-49.03-14.47,1.29-26.32,9.9-34.07,21.7v-18.71h-39.67v133.99h41.17v-75.23c0-3.85,3.58-13.97,5.99-17.22,8.59-11.55,31.31-12.13,37.8,1.87.96,2.07,3.37,10.4,3.37,12.35v78.22h41.17ZM136.07,157.94h-41.17v133.99h41.17v-133.99Z"/>
  </g>
</svg>