<?xml version="1.0" encoding="UTF-8"?>
<svg id="Calque_2" data-name="Calque 2" xmlns="http://www.w3.org/2000/svg" viewBox="0 0 383.53 277.77">
  <defs>
    <style>
      .cls-1 {
        fill: #fff;
      }
    </style>
  </defs>
  <g id="Objects">
    <g>
      <path class="cls-1" d="M383.53,256.78v8.98c-2.96,7.2-8.22,11.33-16.07,12H16.35c-23.57-2.5-20.42-33.83,2.99-33h345.89c9.48.71,14.1,3.46,18.31,12.01Z"/>
      <g>
        <path class="cls-1" d="M383.53,12.01v8.98c-3.29,7.63-8.52,11.29-16.82,12H17.1C-6.74,30.95-4.87.46,17.84,0h348.88c8.3.72,13.53,4.38,16.82,12.01Z"/>
        <path class="cls-1" d="M383.53,134.77v8.23c-2.74,6.56-7.1,11.34-14.57,12.01H14.85c-19.52-2.33-19.52-29.91,0-32.25,119.26.54,238.75-.94,357.87.74,5.51,1.76,8.63,6.2,10.82,11.26Z"/>
      </g>
    </g>
  </g>
</svg>