<?xml version="1.0" encoding="UTF-8"?>
<svg id="Calque_2" data-name="Calque 2" xmlns="http://www.w3.org/2000/svg" viewBox="0 0 384.19 384.12">
  <defs>
    <style>
      .cls-1 {
        fill: #fff;
      }
    </style>
  </defs>
  <g id="Objects">
    <g>
      <path class="cls-1" d="M205.86,0c84.62,1.95,159.32,70.23,175.21,154.03,4.17,21.98,4.19,56.88-.23,78.78-14.61,72.33-76.15,133.93-148.63,148.11-21.78,4.26-55.89,4.22-77.72.13C70.12,365.26,2.77,291.18.02,206.6v-26.2c.26-.53.26-1.03,0-1.5.04-.74-.05-1.51,0-2.25C0,137.33,17.82,98.68,42.64,68.76,75.31,29.39,125.4-.02,177.42,0h28.44ZM124.11,119.98c-16.71,2.34-29.8,15.11-32.69,31.68,5.38,37.17-19.28,105.37,35.45,111.85,42.17-2.43,87.8,3.14,129.56,0,18.3-1.38,32.62-14.44,35.52-32.6-1.62-25.15,2.19-53.04.03-77.87-1.53-17.63-17.5-31.94-34.81-33.31-42.66-3.38-89.93,2.41-133.06.24Z"/>
      <polygon class="cls-1" points=".02 180.4 .02 178.9 .52 179.5 .02 180.4"/>
      <polygon class="cls-1" points="164.69 160.94 217.85 191.26 164.69 222.32 164.69 160.94"/>
    </g>
  </g>
</svg>