<?xml version="1.0" encoding="UTF-8"?>
<svg id="Calque_2" data-name="Calque 2" xmlns="http://www.w3.org/2000/svg" viewBox="0 0 375.24 374.47">
  <g id="Objects">
    <g>
      <path d="M172.99.41c158.64-10.06,259.69,165.96,166.62,296.12-82.66,115.61-259.94,99.59-321.31-28.09C-38.27,150.73,42.75,8.67,172.99.41ZM131.07,73.77c-34.62,3.34-56.7,27.94-59.01,62.25,5.88,58.37-25.07,155.88,60.3,165.07,59.18-6.39,162.63,26.8,170.27-61.75-5.8-57.6,25.03-156.45-59.6-165.7-36.09,2.15-76.35-3.31-111.96.12Z"/>
      <g>
        <path d="M154.27,93.98c26.79-.87,59.34-1.69,85.77.62,24.64,2.16,39.26,17.81,41.67,42.17-2.04,33.04,2.63,69.14-.04,101.82-2.02,24.73-18.75,39.76-43.04,41.55-30.77,2.26-71.77,2.27-102.53,0-24.73-1.82-41.23-17.23-43.08-42.25-2.03-27.51.31-56.96-.75-84.64,1.04-15.11.34-28.44,9.45-41.45,12.42-17.73,33.03-17.18,52.55-17.81ZM240.01,135.43c11.47,11.47,28.69-7,16.6-17.72-11.48-10.18-27.4,6.92-16.6,17.72ZM180.47,126.91c-43.02,4.42-66.97,52.65-45.89,90.37,22.73,40.67,82.12,40.86,105.31.49,24.96-43.45-9.97-95.94-59.42-90.86Z"/>
        <path d="M183.45,147.86c47.99-5.29,60.84,67.2,12.77,77.9-54.24,12.07-67.68-71.84-12.77-77.9Z"/>
      </g>
    </g>
  </g>
</svg>