<?xml version="1.0" encoding="UTF-8"?>
<svg id="Calque_2" data-name="Calque 2" xmlns="http://www.w3.org/2000/svg" viewBox="0 0 389.01 389.2">
  <defs>
    <style>
      .cls-1 {
        fill: #fefefe;
      }
    </style>
  </defs>
  <g id="Objects">
    <path class="cls-1" d="M83.11,0c7.28,2.12,13.79,4.6,19.74,9.48,16.98,19.7,41.05,37.48,57.3,57.3,10.85,13.23,11.6,32.82.76,46.31-11.81,14.7-30.17,10.85-38.7,31.88-9.79,24.14,14.95,58.91,30.7,76.28,18.32,20.19,58.85,54.12,87.9,45.36,23.81-7.17,19.68-27.58,35.44-39.69,13.23-10.17,33.4-8.9,45.92,1.89,17.28,19.72,40.64,37.44,57.3,57.3,2.31,2.75,5.28,6.79,6.58,10.11,1.51,3.85,1.61,8.04,2.89,11.91-.1,1.5.14,3.07,0,4.55-.05,9.93-1.82,15.65-7.82,23.5-9.1,11.91-23.7,27.4-35.3,36.79-12.9,10.45-19.53,14.65-36.45,15.88-28.52,2.07-51.88-5.1-77.75-17.32-80.89-38.21-166.17-122.8-207.65-201.87C8.53,140.18-1.95,111.21.31,77.86c.96-14.13,4-21.46,12.67-32.13,10.05-12.38,25.85-27.7,38.24-37.82C57.48,2.79,61.72.42,70.21,0h12.9Z"/>
  </g>
</svg>