<?xml version="1.0" encoding="UTF-8"?>
<svg id="Calque_2" data-name="Calque 2" xmlns="http://www.w3.org/2000/svg" viewBox="0 0 235.88 114.47">
  <defs>
    <style>
      .cls-1 {
        fill: #e2877d;
      }

      .cls-2 {
        fill: #af4a44;
      }

      .cls-3 {
        fill: #bf3f3f;
      }

      .cls-3, .cls-4 {
        font-family: KATSUMI-Regular, KATSUMI;
        font-size: 51.73px;
      }

      .cls-5 {
        letter-spacing: -.05em;
      }

      .cls-6 {
        fill: #f28379;
        stroke: #f28379;
        stroke-miterlimit: 10;
        stroke-width: 3px;
      }
    </style>
  </defs>
  <g id="Calque_1-2" data-name="Calque 1">
    <text class="cls-4" transform="translate(0 43.97)"><tspan x="0" y="0">Izaka</tspan><tspan class="cls-5" x="110.59" y="0">y</tspan><tspan x="138.01" y="0">a </tspan></text>
    <line class="cls-6" x1="171.17" y1="28.68" x2="235.48" y2="28.68"/>
    <line class="cls-6" x1="3.02" y1="85.79" x2="67.32" y2="85.79"/>
    <text class="cls-3" transform="translate(74.39 101.07)"><tspan x="0" y="0" xml:space="preserve">hir   shi</tspan></text>
    <g>
      <path d="M172.74,81.1c1.9.19,2.89,1.88,2.14,3.64-.98,2.3-3.32,4.23-5.69,4.93-1.16.34-2.41.49-3.61.42l1.47,1.15c1.2,1.05,2.23,2.43,2.78,3.93.62,1.7,1.09,4.34-.13,5.87-1.07,1.33-2.86.93-4.12.14.4,1.02.29,2.58-.6,3.32-1.33,1.11-4.07.11-5.41-.63-2.28-1.26-3.86-3.74-4.34-6.26-.05,0-.04.03-.05.07-.49,1.36-.98,2.66-1.83,3.85-1.46,2.06-4.34,3.59-6.89,3.4-1.74-.13-2.39-1.76-2.12-3.31-1.06.74-2.64.47-3.47-.48-1.19-1.37-.96-3.74-.39-5.34.75-2.1,2.29-3.78,3.95-5.2.19-.16.42-.27.55-.5-1.31.11-2.72-.16-3.97-.56-2.44-.78-6.31-3.08-5.81-6.13.23-1.38,1.33-2.22,2.7-2.27-1.05-1.03-1.53-2.41-.58-3.7,2.09-2.83,7.03-2.33,9.69-.61l2.02,1.24-.44-.75c-1.16-2.58-.6-5.8.7-8.23,1.14-2.13,3.13-3.63,5.13-1.38.12.13.74,1.02.83,1,.04,0,.29-.59.35-.69,1.37-2.34,4.08-1.34,5.38.51,1.75,2.51,1.87,6.25.84,9.06l1.17-.69c1.71-.89,4.58-1.52,6.5-1.35,1.34.12,3.94.8,4.3,2.32.3,1.25-.67,2.45-1.54,3.23.17.01.35-.02.52,0Z"/>
      <path class="cls-1" d="M171.62,87.95c-1.12.9-2.53,1.45-3.94,1.73-.34.07-.82.16-1.16.18-.47.02-.91-.07-1.4-.03-.08,0-.18-.08-.24.03-.05.1.18.38.25.45.36.35.97.71,1.39,1.05,1.67,1.37,2.82,3.12,3.3,5.25.28,1.25.35,2.86-.35,3.98-.97,1.55-2.85.88-4.19.26-.06.04-.05.09-.05.15,0,.29.15.66.17.97.36,4.68-5.41,2.19-7.28.43-1.51-1.42-2.32-3.29-2.96-5.23-.94,1.88-1.63,3.97-3.27,5.38-1.36,1.16-3.77,2.17-5.57,1.86-1.48-.25-1.93-1.92-1.48-3.2.06-.16.42-.53-.08-.35-.62.22-.95.66-1.72.68-2.5.08-2.79-2.89-2.4-4.71.47-2.23,2.38-4.81,4.07-6.3.23-.2.57-.32.81-.51.04-.03.24-.21.18-.27-.44-.03-.78.15-1.22.13-2.39-.08-6.03-1.45-7.65-3.24-.66-.73-1.25-1.7-1.25-2.7.6-.21.95-.53,1.62-.5,2.04.07,4.14,1.13,5.79,2.26,2.97,2.04,5.72,4.51,9.32,5.42,2.34.59,5.9.58,8.05-.59.89-.48,2.21-1.69,2.35-2.73.3-2.24-.91-4.69-3.51-4.11-.78.17-1.68,1.15-1.85,1.92-.05.24-.15.73.24.68.08-.01.07-.08.11-.1.4-.23.93-.43,1.39-.26,1.42.54.59,2.51-.96,2.43-2.34-.12-3.92-3.42-2.77-5.41.74-1.29,2.91-3.23,4.44-3.34,2.69-.21,6.1,1.59,7.51,3.88.79,1.28,1.02,2.79,2.28,3.77.31.24,1.15.7,1.54.7h.52Z"/>
      <path class="cls-2" d="M155.18,68.97c.05.04.75-.97.85-1.07,1.44-1.45,3.36-.69,4.44.74,1.68,2.21,1.85,5.56,1.11,8.16-.07.24-.57,1.57-.42,1.7.02.02.12-.01.16-.03.31-.13.74-.53,1.05-.72,2.54-1.62,7.2-2.52,9.88-.87,1.01.62,1.35,1.28.9,2.46-.19.48-.84,1.45-1.21,1.8-.09.08-.4.19-.24.33.12.1.59.05.77.07,1.4.12,2.51,1.16,2.08,2.65-.26.89-1.41,2.51-2.13,3.12-.65.55-1.64.29-2.31-.1-1.51-.88-1.74-2.77-2.66-4.12-1.77-2.59-6.39-4.85-9.36-3.2-2.44,1.35-4.6,4.18-2.82,6.96.84,1.3,3.01,2.68,4.39,1.35s-.05-3.34-1.6-2.6c-.05.03-.35.23-.37.22.31-1.04,1.11-1.83,2.25-1.77,1.47.08,2.21,1.22,2.29,2.59s-.17,1.89-1.1,2.77c-2.01,1.9-6.12,1.97-8.66,1.34-3.67-.9-6.42-3.5-9.46-5.54-1.34-.9-2.59-1.51-4.16-1.92-1.06-.28-2.33-.55-3.25.22.1-.96.85-1.67,1.77-1.89.35-.08.63-.01.95-.05.3-.03-.04-.21-.09-.26-3.14-3.53,1.53-5.84,4.73-5.49,2.28.25,3.67,1.4,5.56,2.42.34.18.66.3,1.04.38.05-.22-.14-.33-.21-.48-1.32-2.73-1.29-5.28-.08-8.04.49-1.12,1.73-3.06,3.11-3.08,1.17,0,1.92,1.24,2.75,1.86.04.03.03.08.04.08Z"/>
    </g>
  </g>
</svg>