<svg xmlns="http://www.w3.org/2000/svg" xmlns:xlink="http://www.w3.org/1999/xlink" width="138" height="60.201" viewBox="0 0 138 60.201">
  <defs>
    <clipPath id="clip-path">
      <rect id="Rectangle_120" data-name="Rectangle 120" width="138" height="59.15" fill="#fff"/>
    </clipPath>
    <clipPath id="clip-path-2">
      <rect id="Rectangle_126" data-name="Rectangle 126" width="26.534" height="25.31" transform="translate(0 0)" fill="none" stroke="rgba(0,0,0,0)" stroke-width="0.3"/>
    </clipPath>
  </defs>
  <g id="Logo_Blanc" transform="translate(-78.112 -198.66)">
    <g id="Groupe_319" data-name="Groupe 319" transform="translate(78.112 198.66)">
      <g id="Groupe_313" data-name="Groupe 313">
        <g id="Groupe_273" data-name="Groupe 273" clip-path="url(#clip-path)">
          <rect id="Rectangle_116" data-name="Rectangle 116" width="2.877" height="21.65" transform="translate(0.118 1.546)" fill="#fff"/>
          <path id="Tracé_31" data-name="Tracé 31" d="M34.5,50.31v4.67c.433-1.546,1.454-4.36,3.495-4.36v-.31Zm6.866,15.154H36.877L44.856,50.31H41.7L33.567,65.774H44.856V61.1c-.433,1.546-1.454,4.36-3.495,4.36" transform="translate(-28.409 -42.579)" fill="#fff"/>
          <path id="Tracé_32" data-name="Tracé 32" d="M117.773,48.547v4.7c.65-2.5,1.484-4.082,3.556-4.546v-.31c-1.237.063-2.814.155-3.556.155m11.813,6.265c-.129-4.73-1.157-6.327-5.628-6.513v.34c2.629.527,2.783,3.372,2.783,6.218h-3.278c-8.6,0-9.8,9.525-2.01,9.555a5.733,5.733,0,0,0,5.257-3.278v2.938h2.877V55.437m-2.846,4.925c-.712,1.7-2.041,3.278-4.02,3.309-4.887.061-4.856-8.474.742-8.474h3.278Z" transform="translate(-98.387 -40.878)" fill="#fff"/>
          <path id="Tracé_33" data-name="Tracé 33" d="M223.978,7.731c2.194.526,1.515,2.32.092,4.206l.34.031a12.654,12.654,0,0,1,5.66-4.237Zm1.36,6.866h-6.772V0h-2.877V14.6H214.3v.309h1.391V23.2h2.877V14.906h3.742l4.732,8.289h3.216Z" transform="translate(-181.366)" fill="#fff"/>
          <path id="Tracé_34" data-name="Tracé 34" d="M326.469,48.547v4.7c.65-2.5,1.485-4.082,3.558-4.546v-.31c-1.237.063-2.815.155-3.558.155m11.815,6.31c-.123-4.764-1.145-6.371-5.629-6.557v.34c2.629.527,2.785,3.372,2.785,6.218h-3.279c-8.6,0-9.8,9.525-2.01,9.555a5.731,5.731,0,0,0,5.257-3.278v2.938h2.877V55.2h1.485v-.34Zm-2.844,5.5c-.712,1.7-2.042,3.278-4.022,3.309-4.885.061-4.855-8.474.742-8.474h3.279Z" transform="translate(-275.013 -40.878)" fill="#fff"/>
          <path id="Tracé_35" data-name="Tracé 35" d="M434.551,50.31c2.258.526,2.351,2.351,1.609,4.206l.34.063c.928-2.1,2.321-3.774,3.836-4.269Zm-7.917,0h-3l6.155,15.464h1.918l-1.392,3.309c-.8,1.887-1.7,3.68-3.216,3.742-1.206.031-2.288-1.918-2.2-3.339l-1.515,3.681a5.364,5.364,0,0,0,2.382.618c2.1,0,3.587-1.67,4.639-4.114l2.01-4.793Z" transform="translate(-358.323 -42.579)" fill="#fff"/>
          <path id="Tracé_36" data-name="Tracé 36" d="M534.359,48.547v4.7c.65-2.5,1.484-4.082,3.558-4.546v-.31c-1.237.063-2.815.155-3.558.155m11.815,6.31c-.123-4.764-1.145-6.371-5.629-6.557v.34c2.629.527,2.785,3.372,2.785,6.218h-3.279c-8.6,0-9.8,9.525-2.01,9.555a5.732,5.732,0,0,0,5.257-3.278v2.938h2.877V55.2h1.484v-.34Zm-2.845,5.5c-.712,1.7-2.042,3.278-4.022,3.309-4.885.061-4.855-8.474.742-8.474h3.279Z" transform="translate(-450.956 -40.878)" fill="#fff"/>
          <path id="Tracé_37" data-name="Tracé 37" d="M298.382,231a6.4,6.4,0,0,0-4.576,1.855l.247.247a4.265,4.265,0,0,1,3.061-1.36c3.186,0,3.527,2.6,3.527,7.392v7.638h2.875v-8.443c0-3.8-.309-7.329-5.134-7.329m-8.875,15.772h2.875V223.58h-2.875Z" transform="translate(-245.017 -189.221)" fill="#fff"/>
          <path id="Tracé_38" data-name="Tracé 38" d="M400.981,255.119h2.877V239.656h-2.877Zm1.454-21.679a1.624,1.624,0,0,0-1.638,1.607l1.638,1.64,1.609-1.64a1.6,1.6,0,0,0-1.609-1.607" transform="translate(-339.205 -197.566)" fill="#fff"/>
          <path id="Tracé_39" data-name="Tracé 39" d="M453.181,272.406a7.226,7.226,0,0,0-2.6-.526,4.439,4.439,0,0,0-4.3,2.906l.278.124c.65-1.546,1.546-2.135,2.443-2.135,1.423,0,2.752,1.578,2.66,3.341Zm-11.134,15.246h2.877V272.189h-2.877Z" transform="translate(-374.116 -230.099)" fill="#fff"/>
          <path id="Tracé_40" data-name="Tracé 40" d="M685.072,272.08v.34c2.413.341,2.814,1.918,3.556,4.639v-4.793c-.865,0-2.474-.124-3.556-.186m-4.732,3.03a2.419,2.419,0,0,1,2.1-2.628v-.341c-2.691.341-4.206,2.1-4.206,4.114,0,5.38,9.093,5.1,9.093,8.443,0,1.979-1.7,3.123-3.959,3.123-3.433,0-4.237-1.947-5.071-5.071v5.165c1.236,0,4.576.247,5.071.247,2.474,0,6.185-.9,6.155-4.02,0-5.474-9.185-5.228-9.185-9.031" transform="translate(-574.009 -230.268)" fill="#fff"/>
          <path id="Tracé_41" data-name="Tracé 41" d="M774.453,231a6.4,6.4,0,0,0-4.576,1.855l.247.247a4.266,4.266,0,0,1,3.061-1.36c3.186,0,3.525,2.6,3.525,7.392v7.638h2.877v-8.443c0-3.8-.309-7.329-5.134-7.329m-8.876,15.772h2.877V223.58h-2.877Z" transform="translate(-647.927 -189.221)" fill="#fff"/>
          <path id="Tracé_42" data-name="Tracé 42" d="M877.054,255.119h2.877V239.656h-2.877Zm1.454-21.679a1.624,1.624,0,0,0-1.64,1.607l1.64,1.64,1.607-1.64a1.6,1.6,0,0,0-1.607-1.607" transform="translate(-742.116 -197.566)" fill="#fff"/>
          <rect id="Rectangle_117" data-name="Rectangle 117" width="38.487" height="0.615" transform="translate(0 47.856)" fill="#fff"/>
          <rect id="Rectangle_118" data-name="Rectangle 118" width="36.82" height="0.615" transform="translate(101.18 13.838)" fill="#fff"/>
          <rect id="Rectangle_119" data-name="Rectangle 119" width="1.812" height="0.309" transform="translate(31.189 14.598)" fill="#fff"/>
          <path id="Tracé_43" data-name="Tracé 43" d="M436.1,96.191h0Z" transform="translate(-369.078 -81.409)" fill="#fff"/>
        </g>
      </g>
    </g>
    <g id="Groupe_315" data-name="Groupe 315" transform="translate(155.875 233.551)">
      <g id="Groupe_314" data-name="Groupe 314" transform="translate(0 0)" clip-path="url(#clip-path-2)">
        <path id="Tracé_55" data-name="Tracé 55" d="M23.955,9.616a2.05,2.05,0,0,0-1.481-.677,4.216,4.216,0,0,0,.762-.979,1.243,1.243,0,0,0,.084-.986,1.272,1.272,0,0,0-.667-.745c-2.571-1.211-5.707.287-6.548.737a11.622,11.622,0,0,0,.369-3.8,2.738,2.738,0,0,0-2.2-2.662,2.21,2.21,0,0,0-1.93,1.208,4.462,4.462,0,0,0-.4-.512c-.052-.059-.1-.113-.14-.165a1.492,1.492,0,0,0-1.967-.3c-1.091.686-1.6,2.06-1.475,3.971a11.917,11.917,0,0,0,.454,2.465,7.9,7.9,0,0,0-5.755-1.2,2,2,0,0,0-1.2.666,1.975,1.975,0,0,0,.207,2.4c-1.449.092-1.525,1-1.525,1a2.408,2.408,0,0,0,.489,1.968,6.113,6.113,0,0,0,3.307,1.8,14.384,14.384,0,0,0,2.02.38,9.494,9.494,0,0,0-2.884,4.9,1.782,1.782,0,0,0,.449,1.717,2.457,2.457,0,0,0,2.014.233,1.874,1.874,0,0,0,.591,1.6,1.73,1.73,0,0,0,1.088.334,2.489,2.489,0,0,0,.558-.064c2.023-.121,3.892-3.306,4.3-4.05,1.375,3.316,3.25,3.67,3.32,3.68a2.406,2.406,0,0,0,2.2-.13,2.154,2.154,0,0,0,.751-1.6,2.361,2.361,0,0,0,2.325-.244c.708-.7.355-2.04.314-2.184-.014-1.8-2.216-3.744-2.847-4.264a7.33,7.33,0,0,0,4.179-1.309.186.186,0,0,0,.028-.006l0-.012a3.852,3.852,0,0,0,1.292-1.566,1.675,1.675,0,0,0-.074-1.605m-.074,1.555a3.563,3.563,0,0,1-1.044,1.349c-.055.047-.114.092-.175.14-1.725.447-2.4-1.408-2.432-1.484a4.978,4.978,0,0,0-2.153-2.6,3.889,3.889,0,0,0-5.381.753,2.455,2.455,0,0,0,1.027,3.884,1.274,1.274,0,0,0,1,.017,1.341,1.341,0,0,0,.653-.7l0-.019a.81.81,0,0,0-.241-.77,1.627,1.627,0,0,0-1.265-.155c.363-.81.891-1.15,1.579-1.006a1.642,1.642,0,0,1,1.112.879,1.911,1.911,0,0,1,.129,1.726,3.293,3.293,0,0,1-1.987,1.392A8.193,8.193,0,0,1,9.487,14.3,8.663,8.663,0,0,1,6.62,12.446,8.678,8.678,0,0,0,.678,10.207c0-.05.009-.1.019-.149,0-.034.079-.837,1.525-.868l.167,0L2.28,9.063c-.011-.014-1.129-1.312-.3-2.319a1.837,1.837,0,0,1,1.1-.612,7.7,7.7,0,0,1,5.822,1.3l.2.146-.082-.233A11.668,11.668,0,0,1,8.514,4.7c-.087-1.288.088-3,1.4-3.826a1.331,1.331,0,0,1,1.757.264c.043.053.091.109.145.171a3.96,3.96,0,0,1,.462.605l.079.13.062-.138a2.125,2.125,0,0,1,1.84-1.24,2.548,2.548,0,0,1,2.056,2.518c0,.029.147,2.827-.457,3.935l-.139.255.251-.151C16.008,7.2,19.68,5,22.585,6.37a1.111,1.111,0,0,1,.585.654,1.078,1.078,0,0,1-.074.863,4.194,4.194,0,0,1-.863,1.065l-.147.137.2,0a2.113,2.113,0,0,1,1.539.619,1.541,1.541,0,0,1,.054,1.465" transform="translate(0.921 0.919)" fill="#fff" stroke="rgba(0,0,0,0)" stroke-width="0.3"/>
        <path id="Tracé_56" data-name="Tracé 56" d="M23.955,9.616a2.05,2.05,0,0,0-1.481-.677,4.216,4.216,0,0,0,.762-.979,1.243,1.243,0,0,0,.084-.986,1.272,1.272,0,0,0-.667-.745c-2.571-1.211-5.707.287-6.548.737a11.622,11.622,0,0,0,.369-3.8,2.738,2.738,0,0,0-2.2-2.662,2.21,2.21,0,0,0-1.93,1.208,4.462,4.462,0,0,0-.4-.512c-.052-.059-.1-.113-.14-.165a1.492,1.492,0,0,0-1.967-.3c-1.091.686-1.6,2.06-1.475,3.971a11.917,11.917,0,0,0,.454,2.465,7.9,7.9,0,0,0-5.755-1.2,2,2,0,0,0-1.2.666,1.975,1.975,0,0,0,.207,2.4c-1.449.092-1.525,1-1.525,1a2.408,2.408,0,0,0,.489,1.968,6.113,6.113,0,0,0,3.307,1.8,14.384,14.384,0,0,0,2.02.38,9.494,9.494,0,0,0-2.884,4.9,1.782,1.782,0,0,0,.449,1.717,2.457,2.457,0,0,0,2.014.233,1.874,1.874,0,0,0,.591,1.6,1.73,1.73,0,0,0,1.088.334,2.489,2.489,0,0,0,.558-.064c2.023-.121,3.892-3.306,4.3-4.05,1.375,3.316,3.25,3.67,3.32,3.68a2.406,2.406,0,0,0,2.2-.13,2.154,2.154,0,0,0,.751-1.6,2.361,2.361,0,0,0,2.325-.244c.708-.7.355-2.04.314-2.184-.014-1.8-2.216-3.744-2.847-4.264a7.33,7.33,0,0,0,4.179-1.309.186.186,0,0,0,.028-.006l0-.012a3.852,3.852,0,0,0,1.292-1.566A1.675,1.675,0,0,0,23.955,9.616Zm-.074,1.555a3.563,3.563,0,0,1-1.044,1.349c-.055.047-.114.092-.175.14-1.725.447-2.4-1.408-2.432-1.484a4.978,4.978,0,0,0-2.153-2.6,3.889,3.889,0,0,0-5.381.753,2.455,2.455,0,0,0,1.027,3.884,1.274,1.274,0,0,0,1,.017,1.341,1.341,0,0,0,.653-.7l0-.019a.81.81,0,0,0-.241-.77,1.627,1.627,0,0,0-1.265-.155c.363-.81.891-1.15,1.579-1.006a1.642,1.642,0,0,1,1.112.879,1.911,1.911,0,0,1,.129,1.726,3.293,3.293,0,0,1-1.987,1.392A8.193,8.193,0,0,1,9.487,14.3,8.663,8.663,0,0,1,6.62,12.446,8.678,8.678,0,0,0,.678,10.207c0-.05.009-.1.019-.149,0-.034.079-.837,1.525-.868l.167,0L2.28,9.063c-.011-.014-1.129-1.312-.3-2.319a1.837,1.837,0,0,1,1.1-.612,7.7,7.7,0,0,1,5.822,1.3l.2.146-.082-.233A11.668,11.668,0,0,1,8.514,4.7c-.087-1.288.088-3,1.4-3.826a1.331,1.331,0,0,1,1.757.264c.043.053.091.109.145.171a3.96,3.96,0,0,1,.462.605l.079.13.062-.138a2.125,2.125,0,0,1,1.84-1.24,2.548,2.548,0,0,1,2.056,2.518c0,.029.147,2.827-.457,3.935l-.139.255.251-.151C16.008,7.2,19.68,5,22.585,6.37a1.111,1.111,0,0,1,.585.654,1.078,1.078,0,0,1-.074.863,4.194,4.194,0,0,1-.863,1.065l-.147.137.2,0a2.113,2.113,0,0,1,1.539.619A1.541,1.541,0,0,1,23.881,11.171Z" transform="translate(0.921 0.919)" fill="none" stroke="#fff" stroke-miterlimit="10" stroke-width="0.3"/>
      </g>
    </g>
  </g>
</svg>
