<?xml version="1.0" encoding="UTF-8"?>
<svg id="Calque_2" data-name="Calque 2" xmlns="http://www.w3.org/2000/svg" viewBox="0 0 640.06 274.35">
  <defs>
    <style>
      .cls-1 {
        isolation: isolate;
      }

      .cls-2 {
        fill: #fff;
      }
    </style>
  </defs>
  <g id="Objects">
    <g>
      <g>
        <g class="cls-1">
          <path class="cls-2" d="M475.11,220.39c-.02.06-1.35,3.73-5.84,7.19v.06s-.07.02-.11.03c-3.76,2.87-9.71,5.59-18.89,6.01,2.85,2.39,12.8,11.31,12.87,19.58.19.66,1.78,6.8-1.42,10.03-2.05,2.07-5.59,2.44-10.51,1.12-.06,1.34-.5,5.19-3.39,7.36-2.33,1.75-5.67,1.95-9.92.6-.31-.05-8.79-1.67-15-16.9-1.85,3.41-10.3,18.04-19.44,18.6-.21.05-1.22.29-2.52.29-1.5,0-3.39-.3-4.92-1.53-1.84-1.48-2.74-3.94-2.67-7.33-1.52.39-6.24,1.35-9.1-1.07-1.85-1.57-2.54-4.21-2.03-7.88,1.5-10.86,10.63-20.21,13.04-22.52-1.53-.17-5.12-.66-9.13-1.75-7.16-1.92-12.18-4.7-14.95-8.27-2.03-2.63-2.78-5.67-2.21-9.04,0,0,.34-4.16,6.89-4.58-1.22-1.67-4.35-6.79-.93-11.01,1.28-1.57,3.19-2.65,5.41-3.06,4.35-.79,15.41-1.8,26.01,5.5-.56-1.92-1.72-6.39-2.05-11.32-.58-8.77,1.73-15.08,6.66-18.23,2.97-1.9,6.79-1.3,8.89,1.37.19.24.4.48.63.76.53.61,1.17,1.35,1.82,2.35.86-1.55,3.61-5.68,8.72-5.55.13.01,8.84,1.2,9.95,12.22.03.52.61,11.72-1.67,17.43,3.8-2.07,17.98-8.95,29.59-3.39,1.44.69,2.51,1.91,3.01,3.42.49,1.51.36,3.12-.38,4.53-.78,1.48-1.94,2.99-3.44,4.5,1.58.11,4.94.67,6.69,3.11,1.3,1.82,1.42,4.3.33,7.37Z"/>
        </g>
        <path d="M474.78,213.02c-1.75-2.44-5.12-2.99-6.69-3.11,1.5-1.51,2.66-3.01,3.44-4.5.74-1.4.87-3.01.38-4.53-.51-1.51-1.58-2.73-3.01-3.42-11.62-5.56-25.79,1.32-29.59,3.39,2.27-5.71,1.7-16.91,1.67-17.43-1.11-11.03-9.82-12.21-9.95-12.22-5.11-.14-7.87,3.99-8.72,5.55-.66-1-1.3-1.75-1.82-2.35-.24-.27-.45-.52-.63-.76-2.1-2.67-5.92-3.26-8.89-1.37-4.93,3.15-7.24,9.46-6.66,18.23.33,4.93,1.49,9.39,2.05,11.32-10.6-7.3-21.66-6.29-26.01-5.5-2.22.41-4.13,1.49-5.41,3.06-3.41,4.22-.29,9.34.93,11.01-6.55.42-6.89,4.58-6.89,4.58-.57,3.36.18,6.41,2.21,9.04,2.77,3.56,7.79,6.34,14.95,8.27,4.01,1.08,7.6,1.58,9.13,1.75-2.41,2.3-11.54,11.66-13.04,22.52-.51,3.67.18,6.32,2.03,7.88,2.87,2.42,7.58,1.46,9.1,1.07-.06,3.39.83,5.84,2.67,7.33,1.53,1.23,3.42,1.54,4.92,1.53,1.3,0,2.31-.24,2.52-.29,9.14-.56,17.59-15.18,19.44-18.6,6.22,15.22,14.69,16.85,15,16.9,4.26,1.35,7.59,1.15,9.92-.6,2.89-2.17,3.33-6.02,3.39-7.36,4.92,1.33,8.45.95,10.51-1.12,3.2-3.23,1.6-9.37,1.42-10.03-.06-8.27-10.01-17.19-12.87-19.58,9.18-.42,15.12-3.14,18.89-6.01.04-.02.08-.05.11-.09,4.49-3.46,5.82-7.13,5.84-7.19,1.08-3.07.97-5.55-.33-7.37ZM474.44,220.16s-1.1,3.09-4.72,6.19c-.25.21-.51.42-.79.64-.41.33-.86.65-1.35.98-3.65,2.41-9.44,4.78-18.28,5.02l-.98.03.78.61c.14.1,13.31,10.57,13.33,19.68v.1c.03.06,1.81,6.32-1.22,9.37-1.91,1.93-5.36,2.21-10.24.81l-.46-.13v.48s.06,4.87-3.11,7.24c-2.14,1.6-5.26,1.76-9.33.48-.09-.01-8.71-1.71-14.79-17.18l-.3-.73-.35.71c-.1.18-9.51,18.34-19.25,18.89h-.07s-4.16,1.08-6.85-1.08c-1.73-1.4-2.54-3.83-2.39-7.23l.03-.51-.48.16c-.06.02-5.83,1.8-8.91-.8-1.65-1.4-2.26-3.83-1.79-7.24,1.67-12.2,13.26-22.52,13.38-22.62l.63-.56-.83-.06c-.18-.01-18-1.6-24.36-9.82-1.62-2.1-2.37-4.48-2.22-7.11,0-.24.03-.48.06-.72.02-.23.04-.46.09-.68.01-.16.36-3.84,6.89-3.98h.76s-.49-.58-.49-.58c-.05-.06-5.1-6.02-1.35-10.65,1.16-1.44,2.94-2.43,4.98-2.81,4.37-.81,15.69-1.82,26.32,5.99l.92.67-.37-1.07c-.01-.06-1.9-5.69-2.32-12.17-.39-5.92.4-13.77,6.34-17.57,2.66-1.7,6.07-1.18,7.94,1.21.19.24.41.5.66.78.61.7,1.36,1.55,2.09,2.78l.36.6.28-.63c.02-.06,2.57-5.81,8.32-5.7.33.04,8.23,1.14,9.29,11.56,0,.14.66,12.98-2.07,18.07l-.63,1.17,1.13-.69c.16-.11,16.76-10.19,29.89-3.91,1.26.6,2.2,1.67,2.64,3,.43,1.33.32,2.74-.33,3.96-.84,1.6-2.16,3.25-3.9,4.89l-.66.63h.91s4.89-.04,6.96,2.84c1.16,1.62,1.24,3.88.24,6.73Z"/>
        <path d="M469.29,227.64s-.09.02-.13.03c-.55.16-1.08.26-1.58.31-7.33.79-10.28-7.48-10.31-7.58-2.17-7.33-9.36-11.52-9.43-11.56-13.77-9.33-22.99,2.77-23.37,3.29-2.07,2.73-2.84,5.67-2.3,8.72.65,3.62,3.19,6.69,6.63,8.03,1.49.58,2.83.61,3.98.1,1.69-.76,2.45-2.5,2.57-2.78.14-1.3-.15-2.27-.86-2.87-1.79-1.52-5.71-.41-5.75-.41l-.69.2.26-.67c2.22-5.67,5.69-6.22,8.21-5.69,2.33.49,4.4,2.15,5.51,4.41,1.57,3.17,1.76,6.05.6,8.55-2.32,4.99-9.15,6.71-9.44,6.78-3.31.93-6.65,1.4-9.99,1.41-4.69,0-9.39-.88-14.06-2.7-4.65-1.8-9.08-4.72-13.19-8.67-10.86-10.48-25.05-10.14-26.42-10.07h-.11l-.04-.71s.09,0,.21,0c1.9-.07,16.01-.19,26.86,10.28,4.03,3.88,8.39,6.76,12.96,8.52,7.84,3.04,15.79,3.47,23.6,1.26.09-.02,6.81-1.72,8.98-6.39,1.07-2.3.88-4.97-.58-7.93-1.03-2.08-2.91-3.59-5.02-4.03-3.11-.66-5.5.9-7.13,4.62,1.31-.27,4.12-.65,5.72.71.91.76,1.28,1.96,1.09,3.54v.09c-.05.09-.86,2.27-2.97,3.21-1.32.61-2.85.58-4.53-.08-3.67-1.43-6.38-4.7-7.07-8.57-.58-3.26.24-6.37,2.43-9.27.09-.13,9.99-13.16,24.32-3.46.29.16,7.49,4.35,9.73,11.95.13.35,3.19,8.87,10.99,6.81.05-.01.11-.03.16-.04l.18.63v.06Z"/>
        <g class="cls-1">
          <path d="M474.78,213.02c-1.75-2.44-5.12-2.99-6.69-3.11,1.5-1.51,2.66-3.01,3.44-4.5.74-1.4.87-3.01.38-4.53-.51-1.51-1.58-2.73-3.01-3.42-11.62-5.56-25.79,1.32-29.59,3.39,2.27-5.71,1.7-16.91,1.67-17.43-1.11-11.03-9.82-12.21-9.95-12.22-5.11-.14-7.87,3.99-8.72,5.55-.66-1-1.3-1.75-1.82-2.35-.24-.27-.45-.52-.63-.76-2.1-2.67-5.92-3.26-8.89-1.37-4.93,3.15-7.24,9.46-6.66,18.23.33,4.93,1.49,9.39,2.05,11.32-10.6-7.3-21.66-6.29-26.01-5.5-2.22.41-4.13,1.49-5.41,3.06-3.41,4.22-.29,9.34.93,11.01-6.55.42-6.89,4.58-6.89,4.58-.57,3.36.18,6.41,2.21,9.04,2.77,3.56,7.79,6.34,14.95,8.27,4.01,1.08,7.6,1.58,9.13,1.75-2.41,2.3-11.54,11.66-13.04,22.52-.51,3.67.18,6.32,2.03,7.88,2.87,2.42,7.58,1.46,9.1,1.07-.06,3.39.83,5.84,2.67,7.33,1.53,1.23,3.42,1.54,4.92,1.53,1.3,0,2.31-.24,2.52-.29,9.14-.56,17.59-15.18,19.44-18.6,6.22,15.22,14.69,16.85,15,16.9,4.26,1.35,7.59,1.15,9.92-.6,2.89-2.17,3.33-6.02,3.39-7.36,4.92,1.33,8.45.95,10.51-1.12,3.2-3.23,1.6-9.37,1.42-10.03-.06-8.27-10.01-17.19-12.87-19.58,9.18-.42,15.12-3.14,18.89-6.01.04,0,.09-.01.13-.03v-.06c4.48-3.46,5.8-7.13,5.82-7.19,1.08-3.07.97-5.55-.33-7.37ZM474.44,220.16s-1.1,3.09-4.72,6.19c-.25.21-.51.42-.79.64-7.8,2.05-10.86-6.46-10.99-6.81-2.24-7.59-9.44-11.79-9.73-11.95-14.33-9.71-24.23,3.33-24.32,3.46-2.2,2.89-3.01,6.01-2.43,9.27.69,3.86,3.4,7.14,7.07,8.57,1.68.66,3.21.68,4.53.08,2.1-.95,2.92-3.12,2.95-3.21v-.09c.21-1.58-.17-2.77-1.08-3.54-1.6-1.36-4.4-.98-5.72-.71,1.64-3.72,4.03-5.28,7.13-4.62,2.12.45,4,1.95,5.02,4.03,1.47,2.96,1.65,5.63.58,7.93-2.17,4.68-8.9,6.37-8.98,6.39-7.81,2.21-15.76,1.78-23.6-1.26-4.57-1.76-8.92-4.63-12.96-8.52-10.85-10.47-24.95-10.35-26.86-10.28.02-.23.04-.46.09-.68.01-.16.36-3.84,6.89-3.98h.76s-.49-.58-.49-.58c-.05-.06-5.1-6.02-1.35-10.65,1.16-1.44,2.94-2.43,4.98-2.81,4.37-.81,15.69-1.82,26.32,5.99l.92.67-.37-1.07c-.01-.06-1.9-5.69-2.32-12.17-.39-5.92.4-13.77,6.34-17.57,2.66-1.7,6.07-1.18,7.94,1.21.19.24.41.5.66.78.61.7,1.36,1.55,2.09,2.78l.36.6.28-.63c.02-.06,2.57-5.81,8.32-5.7.33.04,8.23,1.14,9.29,11.56,0,.14.66,12.98-2.07,18.07l-.63,1.17,1.13-.69c.16-.11,16.76-10.19,29.89-3.91,1.26.6,2.2,1.67,2.64,3,.43,1.33.32,2.74-.33,3.96-.84,1.6-2.16,3.25-3.9,4.89l-.66.63h.91s4.89-.04,6.96,2.84c1.16,1.62,1.24,3.88.24,6.73Z"/>
        </g>
      </g>
      <g class="cls-1">
        <path d="M.55,7.17v100.41h13.34V7.17H.55Z"/>
        <path d="M28.23,35.86v21.66c2.01-7.17,6.74-20.22,16.21-20.22v-1.44h-16.21ZM60.08,106.14h-20.8l37.01-70.29h-14.63L23.93,107.58h52.36v-21.66c-2.01,7.17-6.74,20.22-16.21,20.22Z"/>
        <path d="M89.91,35.57v21.8c3.01-11.62,6.89-18.93,16.49-21.08v-1.44c-5.74.29-13.05.72-16.49.72ZM144.7,64.63c-.6-21.94-5.37-29.34-26.1-30.21v1.58c12.2,2.44,12.91,15.64,12.91,28.84h-15.2c-39.88,0-45.47,44.18-9.32,44.32,11.33,0,19.79-6.17,24.38-15.2v13.63h13.34v-40.06M131.51,90.37c-3.3,7.89-9.47,15.2-18.65,15.35-22.67.29-22.52-39.3,3.44-39.3h15.2v23.96Z"/>
        <path d="M197.64,35.86c10.18,2.44,7.03,10.76.43,19.51l1.58.14c8.03-9.89,18.08-17.36,26.25-19.65h-28.25ZM203.95,67.71h-31.41V0h-13.34v67.71h-6.45v1.43h6.45v38.45h13.34v-38.45h17.36l21.95,38.45h14.92l-22.81-39.88Z"/>
        <path d="M238.66,35.57v21.8c3.01-11.62,6.89-18.93,16.5-21.08v-1.44c-5.74.29-13.06.72-16.5.72ZM293.46,64.84c-.57-22.1-5.31-29.55-26.11-30.41v1.58c12.2,2.44,12.92,15.64,12.92,28.84h-15.21c-39.87,0-45.47,44.18-9.32,44.32,11.33,0,19.8-6.17,24.38-15.2v13.63h13.34v-41.17h6.89v-1.58h-6.89ZM280.26,90.37c-3.3,7.89-9.47,15.2-18.65,15.35-22.66.29-22.52-39.3,3.44-39.3h15.21v23.96Z"/>
        <path d="M353.56,35.86c10.47,2.44,10.91,10.91,7.46,19.51l1.58.29c4.31-9.76,10.76-17.51,17.79-19.8h-26.83ZM316.84,35.86h-13.91l28.55,71.73h8.9l-6.46,15.35c-3.73,8.75-7.89,17.07-14.92,17.36-5.6.14-10.61-8.9-10.19-15.49l-7.03,17.07c4.02,2,7.75,2.87,11.05,2.87,9.75,0,16.64-7.75,21.52-19.08l9.32-22.23-26.83-67.56Z"/>
        <path d="M386.84,35.57v21.8c3.01-11.62,6.89-18.93,16.5-21.08v-1.44c-5.74.29-13.06.72-16.5.72ZM441.63,64.84c-.57-22.1-5.31-29.55-26.11-30.41v1.58c12.2,2.44,12.92,15.64,12.92,28.84h-15.21c-39.87,0-45.47,44.18-9.32,44.32,11.33,0,19.79-6.17,24.38-15.2v13.63h13.34v-41.17h6.89v-1.58h-6.89ZM428.44,90.37c-3.3,7.89-9.47,15.2-18.65,15.35-22.66.29-22.52-39.3,3.44-39.3h15.21v23.96Z"/>
      </g>
      <g class="cls-1">
        <path d="M247.51,193.79c-8.32,0-15.77,3.16-21.23,8.6l1.15,1.15c3.87-3.87,8.6-6.31,14.2-6.31,14.78,0,16.36,12.05,16.36,34.28v35.42h13.34v-39.16c0-17.64-1.43-33.99-23.81-33.99ZM206.35,159.36v107.58h13.34v-107.58h-13.34Z"/>
        <path d="M286.53,195.22v71.72h13.34v-71.72h-13.34ZM293.27,166.39c-4.16,0-7.6,3.3-7.6,7.46l7.6,7.61,7.46-7.61c0-4.16-3.3-7.46-7.46-7.46Z"/>
        <path d="M366.72,196.22c-4.02-1.58-8.18-2.44-12.05-2.44-8.46,0-15.92,4.01-19.94,13.48l1.29.58c3.01-7.17,7.17-9.9,11.33-9.9,6.6,0,12.77,7.32,12.34,15.5l7.03-17.21ZM315.08,195.22v71.72h13.34v-71.72h-13.34Z"/>
      </g>
      <g class="cls-1">
        <path d="M515.13,193.93v1.58c11.19,1.58,13.05,8.9,16.49,21.52v-22.23c-4.01,0-11.48-.58-16.49-.86ZM493.18,207.98c0-6.17,2.87-10.9,9.75-12.19v-1.58c-12.48,1.58-19.51,9.76-19.51,19.08,0,24.95,42.17,23.66,42.17,39.16,0,9.18-7.89,14.48-18.36,14.48-15.92,0-19.65-9.03-23.52-23.52v23.96c5.73,0,21.23,1.15,23.52,1.15,11.48,0,28.69-4.16,28.55-18.65,0-25.39-42.6-24.25-42.6-41.89Z"/>
        <path d="M586.85,193.79c-8.32,0-15.78,3.16-21.23,8.6l1.15,1.15c3.87-3.87,8.6-6.31,14.2-6.31,14.78,0,16.35,12.05,16.35,34.28v35.42h13.34v-39.16c0-17.64-1.43-33.99-23.81-33.99ZM545.68,159.36v107.58h13.34v-107.58h-13.34Z"/>
        <path d="M625.86,195.22v71.72h13.34v-71.72h-13.34ZM632.61,166.39c-4.16,0-7.61,3.3-7.61,7.46l7.61,7.61,7.46-7.61c0-4.16-3.29-7.46-7.46-7.46Z"/>
      </g>
      <g class="cls-1">
        <rect y="221.97" width="178.51" height="2.85"/>
      </g>
      <g class="cls-1">
        <rect x="469.29" y="64.18" width="170.77" height="2.85"/>
      </g>
      <rect x="144.66" y="67.71" width="8.4" height="1.43"/>
    </g>
  </g>
</svg>