<svg id="Groupe_295" data-name="Groupe 295" xmlns="http://www.w3.org/2000/svg" width="84.999" height="65.828" viewBox="0 0 84.999 65.828">
  <g id="Groupe_286" data-name="Groupe 286" transform="matrix(0.602, -0.799, 0.799, 0.602, 0, 33.189)">
    <path id="Tracé_50" data-name="Tracé 50" d="M1.907,51.6a.927.927,0,0,0,1.319.208C4.3,51.143,4.564,49.921,5.2,48.864,12.157,37.353,28.261,35.14,37.379,25.59,45.2,17.4,41.222,8.582,32.214,3.271,18.566-4.777,7.76,3.043,3.6,15.667-.141,26.986-1.392,40.085,1.907,51.6" transform="translate(0)" fill="#b14944"/>
    <path id="Tracé_51" data-name="Tracé 51" d="M12.084,0C5.823,7.534,1.051,17.62.112,27.427a30.8,30.8,0,0,0-.065,4.326c.19-1.429.377-2.844.661-4.243C2.654,17.7,7.057,8.592,12.084,0" transform="translate(1.546 23.804)" fill="#fff" stroke="#fff" stroke-width="1"/>
  </g>
  <g id="Groupe_287" data-name="Groupe 287" transform="translate(84.999 48.863) rotate(159)">
    <path id="Tracé_49" data-name="Tracé 49" d="M35.21,7.693c-1.981.627-8.059.671-10.156.256a23.908,23.908,0,0,1-7.348-3.009C14.141,2.745,10.816-.674,6.189.116-3.834,1.826.266,18.694,4.911,24.033c5.361,6.159,12,5.446,18.156.978,3.839-2.79,10.277-8.357,12.556-12.427C36.3,11.377,37.785,8,37.765,6.7c-.013-.957-.617-.39-.792-.388A9.394,9.394,0,0,1,35.21,7.693" transform="translate(0 0)" fill="#b14944"/>
    <path id="Tracé_52" data-name="Tracé 52" d="M0,11.458c8.313-.638,17.3-3.7,23.848-8.935A26.22,26.22,0,0,0,26.53,0c-.985.73-1.961,1.455-2.983,2.11C16.4,6.734,8.228,9.439,0,11.458" transform="translate(14.095 3.963)" fill="#fff" stroke="#fff" stroke-width="1"/>
  </g>
</svg>
