<?xml version="1.0" encoding="UTF-8"?>
<svg id="Calque_2" data-name="Calque 2" xmlns="http://www.w3.org/2000/svg" viewBox="0 0 246.01 226.2">
  <defs>
    <style>
      .cls-1 {
        fill: #bebcbc;
        isolation: isolate;
        opacity: .5;
      }
    </style>
  </defs>
  <g id="Calque_1-2" data-name="Calque 1">
    <path id="sakuraGris" class="cls-1" d="M56.89,208.18c-3.3,1.78-14.62,5.59-17.56,3.22-1.3-1.05-2.99-6.77-3.49-8.59-6.18-22.57.27-44.24,17.43-60.36-19.44-2.03-36.75-13.18-46.62-30.05-1.88-3.24-7.52-14.71-6.54-17.9.86-2.81,12.67-7.01,15.93-6.84l-7-9.93c-4.4-5.98,1.9-9.04,6.74-11.99,19.8-12.07,43.06-12.88,63.86-2.48-2.62-18.96,1.59-36.37,14.73-50.8C96.85,9.74,107.64,0,110.92,0c3.24-.01,10.77,9.25,11.64,12.48.91.81,1.86-2.24,2.36-2.95C126.63,7.12,132.23,0,135.23,0c3.42,0,14.26,9.93,16.79,12.74,12.98,14.46,17.11,31.64,14.49,50.53,6.02-2.58,12.05-5.06,18.6-6.23,15.65-2.8,31.77.3,45.26,8.71,4.22,2.57,10.91,5.93,7.06,11.3l-7.33,10.62c3.36-.13,14.01,3.66,15.53,6.2,1.44,2.4-1.71,9.54-2.89,12.21-8.9,20.19-27.93,34.07-49.88,36.37,16.99,16.08,23.52,37.49,17.54,59.96-.48,1.79-2.4,8.01-3.6,8.98-2.94,2.38-14.26-1.44-17.56-3.22v11.2c0,.91-1.07,4.52-1.77,5.27-2.66,2.83-15.49,1.04-19.53.32-22.33-4.02-32.97-14.94-44.24-32.58-.2-.31.03-.94-.9-.64-.48.16-4.14,7.17-5.11,8.54-9.45,13.06-23.63,21.92-39.51,24.69-4.03.73-16.89,2.52-19.53-.32-.86-1.48-1.46-3.09-1.77-4.77v-11.7h0Z"/>
    <g>
      <path d="M58.61,127.65c1.26-4.02,4.37-6.42,8.69-6.05,3.36.29,4.9,2.87,7.29,4.78,3.25,2.6,6.64,4.7,10.42,6.44,1.98-1.5,3.87-3.24,6.3-4.04.28-.18.26-.45.26-.74,0-1.36-.67-3.52-.76-5.05-.62-9.79,2.03-22.01,10.05-28.42,1.81-1.44,4.16-1.13,4.13,1.42-.05,4.39-1.47,7.72.14,12.42,1.83,5.35,9.44,6.69,10.71.88,1.61-7.38-2.78-17.01-4.59-24.1-2.87-11.23,1.24-23.21,10.66-29.93,1.98-1.41,5.94-4.38,6.64-.17-1.39,7.9-4.1,17.57-2.17,25.53,1.43,5.88,7.73,6.25,8.4.09.22-1.97-.58-5.15-.11-6.65.44-1.39,2.28-1.56,3.4-.86,2.24,1.41,6.04,6.14,7.35,8.5,5.74,10.41-.39,20.38-1.05,30.98-.13,2.15,0,5.2,3.03,4.79,3.88-.53,5.24-9,5.01-12.08-.12-1.69-1.38-4.07.69-5.1,1.78-.89,4.36,1.82,5.6,3.08,8.59,8.73,12.82,21.8,9.55,33.83,5.59-.64,10.69-3.24,15.97-4.99,2.27.36,3.57,1.99,3.08,4.3-.29,1.4-4.04,6.31-5.12,7.7-17.68,22.66-43.9,32.15-72.36,28.15-14.13-1.98-30.89-8.13-30.71-25.11-5.12-2.31-10.01-5.2-14.33-8.8-2.5-2.08-5.2-4.32-6.17-7.54v-3.27ZM124.83,87.08c-5.36-5.37-3.21-19.94-1.85-26.82-6.69,5.59-9.54,14.58-7.63,23.09s5.85,15.55,5.12,24.82c-1.03,13.19-17.78,11.6-20,.12l-.88-5.53c-4.57,7.38-5.15,16.23-3.77,24.64,10.97-1.02,20.72,4.93,30.93,7.92,9.9,2.9,20.75,4.44,31.05,3.64.79-.06,5.29-.55,5.6-.81,2.9-8.26,1.63-17.68-2.75-25.16-1.02-1.75-2.41-3.24-3.48-4.95-.33-.07-.4.46-.44.69-.17,1.04-.14,2.02-.39,3.13-1.26,5.55-5.99,12.35-12.5,9.38-5.46-2.5-3.96-9.03-3.19-13.75,1.44-8.84,5.96-19.6-1.59-26.86.55,7.69-8.86,11.84-14.25,6.45ZM82.24,136.2c-3.97-1.45-7.62-4.17-10.93-6.8-2.1-1.67-4.32-5.19-7.3-2.5s.41,5.38,2.38,7.17c3.97,3.59,8.7,6.29,13.46,8.67l2.39-6.53ZM181.07,138.22c-17.94,6.92-37.26,6.75-55.57,1.38-9.01-2.64-21.95-9.95-31.12-7.23-8.3,2.46-11.99,11.57-10.21,19.64,3.6,16.27,34.46,17.9,47.45,16.35,19.84-2.36,38.33-13.66,49.44-30.14Z"/>
      <path d="M89.97,143.04c1.6-.36,3.06.54,2.95,2.25-.04.71-.51,1.43-.59,2.12-1.15,9.23,15.83,11.7,22.23,12.43,1.65.19,6.09-.08,7.03,1.02.72.84.67,2.15,0,3.01s-2.07.8-3.03.77c-9.91-.32-33.76-4.14-30.47-18.67.24-1.05.67-2.64,1.87-2.91Z"/>
    </g>
  </g>
</svg>