<?xml version="1.0" encoding="UTF-8"?>
<svg id="Calque_1" data-name="Calque 1" xmlns="http://www.w3.org/2000/svg" viewBox="0 0 1080 1080">
  <defs>
    <style>
      .cls-1 {
        fill: #ccc;
      }
    </style>
  </defs>
  <path class="cls-1" d="M329.63,817.28c-10.5,5.88-46.53,18.48-55.88,10.63-4.15-3.48-9.52-22.36-11.11-28.38-19.67-74.58.86-146.17,55.47-199.41-63.03-7.41-117.58-44.07-148.35-99.27-5.97-10.71-23.93-48.61-20.8-59.15,2.75-9.27,40.31-23.17,50.69-22.58l-22.28-32.82c-14.01-19.77,6.06-29.87,21.43-39.6,63-39.87,137.01-42.55,203.2-8.19-8.35-62.65,5.05-120.15,46.88-167.84,7.9-9.01,42.22-41.17,52.67-41.2,10.32-.04,34.28,30.55,37.05,41.22,2.89,2.67,5.93-7.39,7.52-9.73,5.4-7.98,23.22-31.51,32.77-31.49,10.9.03,45.39,32.8,53.42,42.09,41.3,47.76,54.43,104.52,46.12,166.94,19.16-8.53,38.35-16.71,59.18-20.59,50.82-9.49,100.62,1.35,144.03,28.79,13.44,8.5,34.72,19.6,22.46,37.34l-23.31,35.07c10.68-.42,44.59,12.1,49.43,20.48,4.58,7.94-5.43,31.51-9.18,40.35-27.92,65.77-87.19,111.91-158.71,120.17,54.05,53.11,74.84,123.85,55.81,198.11-1.52,5.92-7.63,26.47-11.45,29.68-9.35,7.85-45.38-4.76-55.88-10.63v37.02c0,3-3.4,14.93-5.64,17.4-8.46,9.36-49.3,3.44-62.16,1.04-71.06-13.28-104.92-49.36-140.76-107.63-.63-1.02.09-3.12-2.85-2.13-1.54.52-13.17,23.7-16.25,28.2-29.22,42.68-74.73,72.02-125.74,81.56-12.82,2.4-53.76,8.32-62.16-1.04-1.92-2.14-5.64-13.45-5.64-15.75v-38.66Z"/>
</svg>