<?xml version="1.0" encoding="UTF-8"?>
<svg id="Calque_1" data-name="Calque 1" xmlns="http://www.w3.org/2000/svg" viewBox="0 0 1080 1080">
  <path d="M330.1,853.22c-10.5,5.88-46.53,18.48-55.88,10.63-4.15-3.48-9.52-22.36-11.11-28.38-19.67-74.58.86-146.17,55.47-199.41-63.03-7.41-117.58-44.07-148.35-99.27-5.97-10.71-23.93-48.61-20.8-59.15,2.75-9.27,40.31-23.17,50.69-22.58l-22.28-32.82c-14.01-19.77,6.06-29.87,21.43-39.6,63-39.87,137.01-42.55,203.2-8.19-8.35-62.65,5.05-120.15,46.88-167.84,7.9-9.01,42.22-41.17,52.67-41.2,10.32-.04,34.28,30.55,37.05,41.22,2.89,2.67,5.93-7.39,7.52-9.73,5.4-7.98,23.22-31.51,32.77-31.49,10.9.03,45.39,32.8,53.42,42.09,41.3,47.76,54.43,104.52,46.12,166.94,19.16-8.53,38.35-16.71,59.18-20.59,50.82-9.49,100.62,1.35,144.03,28.79,13.44,8.5,34.72,19.6,22.46,37.34l-23.31,35.07c10.68-.42,44.59,12.1,49.43,20.48,4.58,7.94-5.43,31.51-9.18,40.35-27.92,65.77-87.19,111.91-158.71,120.17,54.05,53.11,74.84,123.85,55.81,198.11-1.52,5.92-7.63,26.47-11.45,29.68-9.35,7.85-45.38-4.76-55.88-10.63v37.02c0,3-3.4,14.93-5.64,17.4-8.46,9.36-49.3,3.44-62.16,1.04-71.06-13.28-104.92-49.36-140.76-107.63-.63-1.02.09-3.12-2.85-2.13-1.54.52-13.17,23.7-16.25,28.2-29.22,42.68-74.73,72.02-125.74,81.56-12.82,2.4-53.76,8.32-62.16-1.04-1.92-2.14-5.64-13.45-5.64-15.75v-38.66ZM578.71,193.61c-4.89,8.02-11.21,14.48-15.83,22.88-7.75,14.07-11.2,48.35-32.1,30.51-3.99-10.76-7.13-21.51-12.83-31.59-1.86-3.28-14.15-21.23-16.12-21.84-3.2-.98-21.2,14.76-24.51,17.97-35.67,34.64-55.64,84.39-53.5,134.19.38,8.83,3.93,39.67,8.22,46.08,2.77,4.14,18.02,13.37,23.13,18,23.26,21.04,44.44,46.18,57.59,74.89,3.79-3.33,14.88-2.06,16.21-5.98l.57-70.18c2.48-10.84,20.63-10.98,22.58,1.4,1.75,11.18-2.16,65.8.81,69.93,13.74,3.04,26.26,8.18,37.97,15.95,71.68-70.75,93.84-191.61,23.88-271.94-4.04-4.64-32.04-33.05-36.07-30.27ZM464.9,527.44c2.71-6.6,7.05-13.45,11.67-18.84,2.56-2.99,14.69-12.89,14.56-14.54-34.48-67.75-115.01-124.45-193.1-119.57-33.88,2.12-71.19,16.58-97.79,37.17-.71,2.96,15.56,23.83,18.74,27.04,7.7,7.79,37.26,21.75,21.5,34.53-5.9,4.79-30.25,3.2-40.73,5.34-3.26.66-24.18,7.28-24.43,8.77,17.23,59.88,63.73,105.43,124.12,120.96,9.38,2.41,36.13,8.39,44.28,6.01,3.59-1.04,20.63-14.71,26.39-18.02,17.8-10.23,40.51-19.79,60.31-25.24,4.43-1.22,23.55-3.5,24.52-4.28,1.15-.93,2.78-16.44,1.65-17.74l-65.5-20.87c-13.68-9.23-5.65-25.75,10.16-21.69l63.63,20.97ZM905.87,486.44c-11.68-3.34-23.28-8.4-35.51-9.77-10.9-1.23-35.33,4.1-33.52-14.03.78-7.83,20.04-18.21,26.39-24.76,2.98-3.07,17.6-22.25,17.86-25.04.32-3.39-16.12-12.63-19.54-14.56-62.8-35.47-130.18-29.4-190.47,7.85-8.38,31.74-24.17,60.77-44.18,86.62-3.12,4.03-17.06,17.78-18.01,19.88-1.35,2.99,7.64,10.82,7.58,14.81l65.06-21.26c16.12-2.95,21.88,15,7.67,22.54-17.11,9.09-45.83,12.51-64.42,20.29,1.24,14.15,1.13,27.85-3.21,41.64,47.95,26.76,108.75,31.25,161.68,17.3,59.71-15.74,106.15-62.14,122.63-121.52ZM538.76,503.18c-75.1,2.26-77.27,114.12-7.1,121.34,90.83,9.34,90.7-123.86,7.1-121.34ZM354.78,887.77h25.5c37.52,0,89.72-32.92,113.54-60.85,8.36-9.8,31.89-45.61,33.39-57.17.47-3.63-7.66-27.96-9.04-34.68-4.45-21.63-6.37-43.16-5.44-65.28.22-5.15,4.63-22.03,1.69-24.72-1.09-1-14.09-6.11-14.74-5.66l-40.76,57.59c-12.51,6.04-24.17-3.85-17.6-16.36,4.38-8.35,39.99-51.92,39.72-55.31-9.28-10.74-16.57-22.43-22.04-35.49-76.75,12.1-155.11,70.91-173.86,148.49-7.77,32.15-6.92,72.77,6.21,102.98,9.59-2.61,19.29-4.98,28.35-9.19,8.74-4.05,36.12-28.39,41.29-10.66,2.41,8.26-7.27,33.74-7.84,45.74-.35,7.34.64,13.44,1.62,20.55ZM726.6,887.77c1.53-6.98,2-13.36,1.62-20.55-.63-11.89-10.22-37.59-7.84-45.74,5.18-17.73,32.56,6.6,41.29,10.66s18.76,6.58,28.35,9.19c23.42-57.05,10.82-122.01-27.27-169.85-5.28-6.64-24.68-28.26-31.24-31.28-5.62-2.58-22.75-.23-30.39-.87-21.93-1.83-43.49-7.65-64.21-14.76-4.5-1.55-24.62-11.19-26.32-11.07s-10.42,11.27-10.03,12.77c5.86,12.59,40.95,49.79,41.84,60.38.92,10.86-12.21,17.34-20.57,9.75l-40.14-56.97c-13.49,5.54-27.68,10.59-42.65,9.78-12.53,98.34,35.16,206.24,136.55,232.82,5.15,1.35,23.15,5.74,27.16,5.74h23.86Z"/>
</svg>