<?xml version="1.0" encoding="UTF-8"?>
<svg id="Calque_2" data-name="Calque 2" xmlns="http://www.w3.org/2000/svg" viewBox="0 0 246.01 226.2">
  <defs>
    <style>
      .cls-1 {
        fill: #bebcbc;
        isolation: isolate;
        opacity: .5;
      }
    </style>
  </defs>
  <g id="Calque_1-2" data-name="Calque 1">
    <path id="sakuraGris-2" class="cls-1" d="M56.89,208.18c-3.3,1.78-14.62,5.59-17.56,3.22-1.3-1.05-2.99-6.77-3.49-8.59-6.18-22.57.27-44.24,17.43-60.36-19.44-2.03-36.75-13.18-46.62-30.05-1.88-3.24-7.52-14.71-6.54-17.9.86-2.81,12.67-7.01,15.93-6.84l-7-9.93c-4.4-5.98,1.9-9.04,6.74-11.99,19.8-12.07,43.06-12.88,63.86-2.48-2.62-18.96,1.59-36.37,14.73-50.8C96.85,9.74,107.64,0,110.92,0c3.24-.01,10.77,9.25,11.64,12.48.91.81,1.86-2.24,2.36-2.95C126.63,7.12,132.23,0,135.23,0c3.42,0,14.26,9.93,16.79,12.74,12.98,14.46,17.11,31.64,14.49,50.53,6.02-2.58,12.05-5.06,18.6-6.23,15.65-2.8,31.77.3,45.26,8.71,4.22,2.57,10.91,5.93,7.06,11.3l-7.33,10.62c3.36-.13,14.01,3.66,15.53,6.2,1.44,2.4-1.71,9.54-2.89,12.21-8.9,20.19-27.93,34.07-49.88,36.37,16.99,16.08,23.52,37.49,17.54,59.96-.48,1.79-2.4,8.01-3.6,8.98-2.94,2.38-14.26-1.44-17.56-3.22v11.2c0,.91-1.07,4.52-1.77,5.27-2.66,2.83-15.49,1.04-19.53.32-22.33-4.02-32.97-14.94-44.24-32.58-.2-.31.03-.94-.9-.64-.48.16-4.14,7.17-5.11,8.54-9.45,13.06-23.63,21.92-39.51,24.69-4.03.73-16.89,2.52-19.53-.32-.86-1.48-1.46-3.09-1.77-4.77v-11.7h0Z"/>
    <path d="M58.58,113.57c2.57-2.96,3.95-1.2,5.74,1.18,5.84,7.77,10.25,17.16,14.25,25.99l3.9,9.8c8.19-24.36,23.52-49.68,46.52-62.49,1.69-.94,8.17-4.31,9.71-4.38,2.12-.09,3.38,2.53,1.98,4.25-.62.76-7.03,3.4-8.58,4.24-8.28,4.51-16.1,11.12-21.92,18.48,9.8,14.93,27.03,15.81,40.45,4.82,10.23-8.38,13.68-21.73,27.21-26.35,1.27-.43,2.63-.82,3.97-.94.79-.82-4.21-6.17-5.03-6.92-18.46-16.84-52.65-16.39-66.09,6.34-2,3.39-2.24,5.71-3.45,9.13-1.02,2.89-4.92,2.42-5.02-.62-.15-4.6,5.01-13.02,8.03-16.48,17.55-20.04,48.99-19.75,68.78-3.14,3.05,2.56,9.85,9.82,8.1,14.15-.83,2.05-7.86,3.23-10.22,4.37-8.16,3.95-12,12.95-17.88,19.34-14.14,15.33-34.89,19.78-50.18,3.15-.41-.44-2.05-2.96-2.5-2.65-7.75,10.91-14.06,22.75-18.55,35.39-1.01,2.85-2.01,7.74-3.2,10.12-.95,1.9-3.18,2.14-4.46.43-4.67-16.11-11.51-31.73-21.57-45.2v-2.01Z"/>
  </g>
</svg>